<svg width="20" height="20" viewBox="0 0 20 20" fill="none" xmlns="http://www.w3.org/2000/svg">
    <path d="M16.5379 4.6624C16.5379 3.99771 15.9991 3.461 15.3369 3.461C14.6747 3.461 14.1355 3.99771 14.1355 4.6624C14.1355 5.32465 14.6747 5.86136 15.3369 5.86136C15.9991 5.86136 16.5379 5.32465 16.5379 4.6624Z" fill="white"/>
    <path d="M18.1386 14.0404C18.0941 15.0155 17.931 15.5453 17.7956 15.8971C17.6137 16.3637 17.3968 16.6972 17.0449 17.0471C16.697 17.397 16.3634 17.6135 15.8968 17.7934C15.545 17.9308 15.0132 18.0944 14.0382 18.1408C12.984 18.1873 12.6717 18.1972 9.99851 18.1972C7.32784 18.1972 7.01301 18.1873 5.95887 18.1408C4.98383 18.0944 4.45453 17.9308 4.10263 17.7934C3.63365 17.6135 3.30254 17.397 2.95264 17.0471C2.60026 16.6972 2.38332 16.3637 2.20392 15.8971C2.06849 15.5453 1.90295 15.0155 1.86092 14.0404C1.80955 12.9863 1.80013 12.669 1.80013 10.0013C1.80013 7.32812 1.80955 7.01328 1.86092 5.95914C1.90295 4.9841 2.06849 4.45481 2.20392 4.09995C2.38332 3.63392 2.60026 3.3023 2.95264 2.9524C3.30254 2.60302 3.63365 2.38604 4.10263 2.2042C4.45453 2.06631 4.98383 1.90519 5.95887 1.85875C7.01301 1.81227 7.32784 1.80041 9.99851 1.80041C12.6717 1.80041 12.984 1.81227 14.0382 1.85875C15.0132 1.90519 15.545 2.06631 15.8968 2.2042C16.3634 2.38604 16.697 2.60302 17.0449 2.9524C17.3968 3.3023 17.6137 3.63392 17.7956 4.09995C17.931 4.45481 18.0941 4.9841 18.1386 5.95914C18.1875 7.01328 18.1993 7.32812 18.1993 10.0013C18.1993 12.669 18.1875 12.9863 18.1386 14.0404ZM19.939 5.87712C19.89 4.8116 19.722 4.08364 19.4724 3.44959C19.2184 2.7918 18.8779 2.23433 18.3204 1.67687C17.7655 1.12189 17.208 0.78137 16.5502 0.524395C15.9137 0.277281 15.1881 0.107262 14.1221 0.0608177C13.0561 0.00940895 12.7157 3.05176e-05 9.99851 3.05176e-05C7.28384 3.05176e-05 6.94088 0.00940895 5.87488 0.0608177C4.81132 0.107262 4.08633 0.277281 3.44684 0.524395C2.79152 0.78137 2.23406 1.12189 1.67908 1.67687C1.12161 2.23433 0.781094 2.7918 0.524602 3.44959C0.277487 4.08364 0.109469 4.8116 0.0580597 5.87712C0.0116168 6.94312 -0.000244141 7.28412 -0.000244141 10.0013C-0.000244141 12.7159 0.0116168 13.0564 0.0580597 14.1224C0.109469 15.186 0.277487 15.9134 0.524602 16.5505C0.781094 17.2058 1.12161 17.7657 1.67908 18.3207C2.23406 18.8757 2.79152 19.2187 3.44684 19.4752C4.08633 19.7223 4.81132 19.8903 5.87488 19.9392C6.94088 19.9882 7.28384 20 9.99851 20C12.7157 20 13.0561 19.9882 14.1221 19.9392C15.1881 19.8903 15.9137 19.7223 16.5502 19.4752C17.208 19.2187 17.7655 18.8757 18.3204 18.3207C18.8779 17.7657 19.2184 17.2058 19.4724 16.5505C19.722 15.9134 19.89 15.186 19.939 14.1224C19.9879 13.0564 19.9998 12.7159 19.9998 10.0013C19.9998 7.28412 19.9879 6.94312 19.939 5.87712Z" fill="white"/>
    <path d="M9.99829 13.3317C8.15836 13.3317 6.66537 11.8411 6.66537 10.0012C6.66537 8.15833 8.15836 6.66585 9.99829 6.66585C11.8387 6.66585 13.3337 8.15833 13.3337 10.0012C13.3337 11.8411 11.8387 13.3317 9.99829 13.3317ZM9.99829 4.86299C7.16204 4.86299 4.86499 7.16498 4.86499 10.0012C4.86499 12.835 7.16204 15.1346 9.99829 15.1346C12.8345 15.1346 15.1341 12.835 15.1341 10.0012C15.1341 7.16498 12.8345 4.86299 9.99829 4.86299Z" fill="white"/>
</svg>
